<svg xmlns="http://www.w3.org/2000/svg" version="1.1" xmlns:xlink="http://www.w3.org/1999/xlink" xmlns:svgjs="http://svgjs.dev/svgjs" viewBox="0 0 2400 800" opacity="1"><defs><linearGradient x1="50%" y1="0%" x2="50%" y2="100%" id="sssurf-grad"><stop stop-color="hsl(208, 77%, 50%)" stop-opacity="1" offset="0%"></stop><stop stop-color="hsla(208, 45%, 72%, 1.00)" stop-opacity="1" offset="100%"></stop></linearGradient></defs><g fill="url(#sssurf-grad)" transform="matrix(1,0,0,1,0,-108.53897094726562)"><path d="M 0 321.47551509925927 Q 600 450 600 317.419472158876 Q 1200 450 1200 318.5576229932547 Q 1800 450 1800 322.6714487363536 Q 2400 450 2400 317.07794762292025 L 2400 800 L 0 800 L 0 322.93596299173214 Z" transform="matrix(1,0,0,1,0,25)" opacity="0.05"></path><path d="M 0 321.47551509925927 Q 600 450 600 317.419472158876 Q 1200 450 1200 318.5576229932547 Q 1800 450 1800 322.6714487363536 Q 2400 450 2400 317.07794762292025 L 2400 800 L 0 800 L 0 322.93596299173214 Z" transform="matrix(1,0,0,1,0,50)" opacity="0.15"></path><path d="M 0 321.47551509925927 Q 600 450 600 317.419472158876 Q 1200 450 1200 318.5576229932547 Q 1800 450 1800 322.6714487363536 Q 2400 450 2400 317.07794762292025 L 2400 800 L 0 800 L 0 322.93596299173214 Z" transform="matrix(1,0,0,1,0,75)" opacity="0.24"></path><path d="M 0 321.47551509925927 Q 600 450 600 317.419472158876 Q 1200 450 1200 318.5576229932547 Q 1800 450 1800 322.6714487363536 Q 2400 450 2400 317.07794762292025 L 2400 800 L 0 800 L 0 322.93596299173214 Z" transform="matrix(1,0,0,1,0,100)" opacity="0.34"></path><path d="M 0 321.47551509925927 Q 600 450 600 317.419472158876 Q 1200 450 1200 318.5576229932547 Q 1800 450 1800 322.6714487363536 Q 2400 450 2400 317.07794762292025 L 2400 800 L 0 800 L 0 322.93596299173214 Z" transform="matrix(1,0,0,1,0,125)" opacity="0.43"></path><path d="M 0 321.47551509925927 Q 600 450 600 317.419472158876 Q 1200 450 1200 318.5576229932547 Q 1800 450 1800 322.6714487363536 Q 2400 450 2400 317.07794762292025 L 2400 800 L 0 800 L 0 322.93596299173214 Z" transform="matrix(1,0,0,1,0,150)" opacity="0.53"></path><path d="M 0 321.47551509925927 Q 600 450 600 317.419472158876 Q 1200 450 1200 318.5576229932547 Q 1800 450 1800 322.6714487363536 Q 2400 450 2400 317.07794762292025 L 2400 800 L 0 800 L 0 322.93596299173214 Z" transform="matrix(1,0,0,1,0,175)" opacity="0.62"></path><path d="M 0 321.47551509925927 Q 600 450 600 317.419472158876 Q 1200 450 1200 318.5576229932547 Q 1800 450 1800 322.6714487363536 Q 2400 450 2400 317.07794762292025 L 2400 800 L 0 800 L 0 322.93596299173214 Z" transform="matrix(1,0,0,1,0,200)" opacity="0.72"></path><path d="M 0 321.47551509925927 Q 600 450 600 317.419472158876 Q 1200 450 1200 318.5576229932547 Q 1800 450 1800 322.6714487363536 Q 2400 450 2400 317.07794762292025 L 2400 800 L 0 800 L 0 322.93596299173214 Z" transform="matrix(1,0,0,1,0,225)" opacity="0.81"></path><path d="M 0 321.47551509925927 Q 600 450 600 317.419472158876 Q 1200 450 1200 318.5576229932547 Q 1800 450 1800 322.6714487363536 Q 2400 450 2400 317.07794762292025 L 2400 800 L 0 800 L 0 322.93596299173214 Z" transform="matrix(1,0,0,1,0,250)" opacity="0.91"></path><path d="M 0 321.47551509925927 Q 600 450 600 317.419472158876 Q 1200 450 1200 318.5576229932547 Q 1800 450 1800 322.6714487363536 Q 2400 450 2400 317.07794762292025 L 2400 800 L 0 800 L 0 322.93596299173214 Z" transform="matrix(1,0,0,1,0,275)" opacity="1.00"></path></g></svg>